<svg width="17" height="16" viewBox="0 0 17 16" fill="none" xmlns="http://www.w3.org/2000/svg">
<path d="M8.5 0C12.9184 0 16.5 3.5816 16.5 8C16.5 12.4184 12.9184 16 8.5 16C4.0816 16 0.5 12.4184 0.5 8C0.5 3.5816 4.0816 0 8.5 0ZM8.5 1.2C6.69653 1.2 4.96692 1.91643 3.69167 3.19167C2.41643 4.46692 1.7 6.19653 1.7 8C1.7 9.80347 2.41643 11.5331 3.69167 12.8083C4.96692 14.0836 6.69653 14.8 8.5 14.8C10.3035 14.8 12.0331 14.0836 13.3083 12.8083C14.5836 11.5331 15.3 9.80347 15.3 8C15.3 6.19653 14.5836 4.46692 13.3083 3.19167C12.0331 1.91643 10.3035 1.2 8.5 1.2ZM8.5 4C8.65913 4 8.81174 4.06321 8.92426 4.17574C9.03679 4.28826 9.1 4.44087 9.1 4.6V7.4H11.9C12.0591 7.4 12.2117 7.46321 12.3243 7.57574C12.4368 7.68826 12.5 7.84087 12.5 8C12.5 8.15913 12.4368 8.31174 12.3243 8.42426C12.2117 8.53679 12.0591 8.6 11.9 8.6H9.1V11.4C9.1 11.5591 9.03679 11.7117 8.92426 11.8243C8.81174 11.9368 8.65913 12 8.5 12C8.34087 12 8.18826 11.9368 8.07574 11.8243C7.96321 11.7117 7.9 11.5591 7.9 11.4V8.6H5.1C4.94087 8.6 4.78826 8.53679 4.67574 8.42426C4.56321 8.31174 4.5 8.15913 4.5 8C4.5 7.84087 4.56321 7.68826 4.67574 7.57574C4.78826 7.46321 4.94087 7.4 5.1 7.4H7.9V4.6C7.9 4.44087 7.96321 4.28826 8.07574 4.17574C8.18826 4.06321 8.34087 4 8.5 4Z" fill="white"/>
</svg>
