<svg width="19" height="20" viewBox="0 0 19 20" fill="none" xmlns="http://www.w3.org/2000/svg">
<path d="M21.9141 8.58333H5.1124L10.2549 2.40667C10.4954 2.11736 10.611 1.74438 10.5765 1.36977C10.542 0.99517 10.36 0.649629 10.0707 0.409166C9.78142 0.168703 9.40844 0.0530149 9.03384 0.0875529C8.65923 0.122091 8.31369 0.304025 8.07323 0.593332L0.989896 9.09333C0.94224 9.16094 0.899625 9.23197 0.862396 9.30583C0.862396 9.37667 0.862396 9.41917 0.763229 9.49C0.699017 9.65243 0.665396 9.82534 0.664062 10C0.665396 10.1747 0.699017 10.3476 0.763229 10.51C0.763229 10.5808 0.763229 10.6233 0.862396 10.6942C0.899625 10.768 0.94224 10.8391 0.989896 10.9067L8.07323 19.4067C8.20643 19.5666 8.37323 19.6952 8.56176 19.7833C8.7503 19.8715 8.95594 19.917 9.16406 19.9167C9.49507 19.9173 9.81586 19.802 10.0707 19.5908C10.2142 19.4719 10.3328 19.3258 10.4197 19.161C10.5066 18.9962 10.5601 18.8158 10.5772 18.6303C10.5943 18.4447 10.5747 18.2576 10.5194 18.0797C10.4641 17.9018 10.3742 17.7365 10.2549 17.5933L5.1124 11.4167H21.9141C22.2898 11.4167 22.6501 11.2674 22.9158 11.0017C23.1815 10.7361 23.3307 10.3757 23.3307 10C23.3307 9.62428 23.1815 9.26394 22.9158 8.99826C22.6501 8.73259 22.2898 8.58333 21.9141 8.58333Z" fill="black"/>
</svg>
