<svg width="24" height="24" viewBox="0 0 24 24" fill="none" xmlns="http://www.w3.org/2000/svg">
<path fill-rule="evenodd" clip-rule="evenodd" d="M17.0005 2C17.7961 2 18.5592 2.31607 19.1218 2.87868C19.6844 3.44129 20.0005 4.20435 20.0005 5V21C20.0004 21.1883 19.9471 21.3728 19.8467 21.5322C19.7463 21.6916 19.603 21.8194 19.4332 21.9009C19.2634 21.9824 19.0741 22.0143 18.8869 21.9929C18.6998 21.9715 18.5225 21.8977 18.3755 21.78L16.5005 20.28L14.6255 21.78C14.4334 21.9339 14.1913 22.0115 13.9455 21.9981C13.6998 21.9846 13.4676 21.881 13.2935 21.707L12.0005 20.414L10.7075 21.707C10.5335 21.8811 10.3014 21.9849 10.0556 21.9986C9.80987 22.0122 9.5677 21.9348 9.37549 21.781L7.50049 20.28L5.62549 21.78C5.47846 21.8977 5.30118 21.9715 5.11405 21.9929C4.92692 22.0143 4.73756 21.9824 4.56776 21.9009C4.39796 21.8194 4.25463 21.6916 4.15427 21.5322C4.05391 21.3728 4.00061 21.1883 4.00049 21V5C4.00049 4.20435 4.31656 3.44129 4.87917 2.87868C5.44178 2.31607 6.20484 2 7.00049 2H17.0005ZM12.0005 12H9.00049C8.73527 12 8.48092 12.1054 8.29338 12.2929C8.10585 12.4804 8.00049 12.7348 8.00049 13C8.00049 13.2652 8.10585 13.5196 8.29338 13.7071C8.48092 13.8946 8.73527 14 9.00049 14H12.0005C12.2657 14 12.5201 13.8946 12.7076 13.7071C12.8951 13.5196 13.0005 13.2652 13.0005 13C13.0005 12.7348 12.8951 12.4804 12.7076 12.2929C12.5201 12.1054 12.2657 12 12.0005 12ZM15.0005 8H9.00049C8.74561 8.00028 8.50046 8.09788 8.31512 8.27285C8.12978 8.44782 8.01825 8.68695 8.00332 8.94139C7.98838 9.19584 8.07116 9.44638 8.23475 9.64183C8.39834 9.83729 8.63039 9.9629 8.88349 9.993L9.00049 10H15.0005C15.2554 9.99972 15.5005 9.90212 15.6859 9.72715C15.8712 9.55218 15.9827 9.31305 15.9977 9.05861C16.0126 8.80416 15.9298 8.55362 15.7662 8.35817C15.6026 8.16271 15.3706 8.0371 15.1175 8.007L15.0005 8Z" fill="black"/>
</svg>
