<svg width="36" height="36" viewBox="0 0 36 36" fill="none" xmlns="http://www.w3.org/2000/svg">
<rect width="36" height="36" rx="12" fill="#EFF1F8"/>
<path d="M14.5 28C15.3284 28 16 27.3284 16 26.5C16 25.6716 15.3284 25 14.5 25C13.6716 25 13 25.6716 13 26.5C13 27.3284 13.6716 28 14.5 28Z" fill="black"/>
<path d="M24.5 28C25.3284 28 26 27.3284 26 26.5C26 25.6716 25.3284 25 24.5 25C23.6716 25 23 25.6716 23 26.5C23 27.3284 23.6716 28 24.5 28Z" fill="black"/>
<path d="M27.294 11.6364H12.0104L11.4454 8.58196C11.4131 8.41521 11.3265 8.26567 11.2006 8.15937C11.0747 8.05306 10.9175 7.99672 10.7563 8.00015H8V9.45467H10.1912L12.8235 23.418C12.8557 23.5848 12.9423 23.7343 13.0682 23.8406C13.1941 23.9469 13.3514 24.0033 13.5126 23.9999H25.9159V22.5453H14.0776L13.5126 19.6363H25.9159C26.0751 19.6404 26.2309 19.5861 26.3565 19.4827C26.4821 19.3793 26.5699 19.2331 26.6049 19.069L27.9831 12.5237C28.0062 12.4158 28.0056 12.3037 27.9815 12.1961C27.9574 12.0884 27.9103 11.988 27.8439 11.9025C27.7774 11.8169 27.6933 11.7485 27.5981 11.7024C27.5028 11.6563 27.3988 11.6337 27.294 11.6364ZM25.3646 18.1818H13.2507L12.286 13.091H26.4327L25.3646 18.1818Z" fill="black"/>
</svg>
