<svg width="19" height="19" viewBox="0 0 19 19" fill="none" xmlns="http://www.w3.org/2000/svg">
<path d="M11.407 9.00026L18.697 1.71026C18.8609 1.51896 18.9465 1.27288 18.9368 1.02121C18.927 0.769532 18.8227 0.530793 18.6446 0.352698C18.4665 0.174604 18.2278 0.0702709 17.9761 0.0605497C17.7244 0.0508286 17.4783 0.136435 17.287 0.300261L9.99704 7.59026L2.70704 0.290261C2.51574 0.126435 2.26967 0.0408293 2.01799 0.0505505C1.76631 0.0602716 1.52758 0.164604 1.34948 0.342698C1.17139 0.520793 1.06705 0.759531 1.05733 1.01121C1.04761 1.26288 1.13322 1.50896 1.29704 1.70026L8.58704 9.00026L1.28704 16.2903C1.18236 16.3799 1.09734 16.4902 1.03732 16.6143C0.977295 16.7384 0.943565 16.8735 0.938245 17.0112C0.932926 17.1489 0.956132 17.2863 1.00641 17.4146C1.05668 17.5429 1.13294 17.6595 1.23039 17.7569C1.32785 17.8544 1.4444 17.9306 1.57272 17.9809C1.70105 18.0312 1.83838 18.0544 1.9761 18.0491C2.11382 18.0437 2.24895 18.01 2.37301 17.95C2.49708 17.89 2.6074 17.8049 2.69704 17.7003L9.99704 10.4103L17.287 17.7003C17.4783 17.8641 17.7244 17.9497 17.9761 17.94C18.2278 17.9303 18.4665 17.8259 18.6446 17.6478C18.8227 17.4697 18.927 17.231 18.9368 16.9793C18.9465 16.7276 18.8609 16.4816 18.697 16.2903L11.407 9.00026Z" fill="black"/>
</svg>
