<svg width="40" height="40" viewBox="0 0 40 40" fill="none" xmlns="http://www.w3.org/2000/svg">
<rect width="40" height="40" rx="8" fill="#FFF2F2"/>
<path d="M16.25 12.4995V10.248C16.25 10.0491 16.329 9.85837 16.4697 9.71772C16.6103 9.57706 16.8011 9.49805 17 9.49805H23C23.1989 9.49805 23.3897 9.57706 23.5303 9.71772C23.671 9.85837 23.75 10.0491 23.75 10.248V12.4995H29.75C29.9489 12.4995 30.1397 12.5786 30.2803 12.7192C30.421 12.8599 30.5 13.0506 30.5 13.2495C30.5 13.4485 30.421 13.6392 30.2803 13.7799C30.1397 13.9205 29.9489 13.9995 29.75 13.9995H10.25C10.0511 13.9995 9.86032 13.9205 9.71967 13.7799C9.57902 13.6392 9.5 13.4485 9.5 13.2495C9.5 13.0506 9.57902 12.8599 9.71967 12.7192C9.86032 12.5786 10.0511 12.4995 10.25 12.4995H16.25ZM17.75 12.4995H22.25V10.9995H17.75V12.4995ZM12.5 30.4995C12.3011 30.4995 12.1103 30.4205 11.9697 30.2799C11.829 30.1392 11.75 29.9485 11.75 29.7495V13.9995H28.25V29.7495C28.25 29.9485 28.171 30.1392 28.0303 30.2799C27.8897 30.4205 27.6989 30.4995 27.5 30.4995H12.5ZM17.75 25.9995C17.9489 25.9995 18.1397 25.9205 18.2803 25.7799C18.421 25.6392 18.5 25.4485 18.5 25.2495V17.7495C18.5 17.5506 18.421 17.3599 18.2803 17.2192C18.1397 17.0786 17.9489 16.9995 17.75 16.9995C17.5511 16.9995 17.3603 17.0786 17.2197 17.2192C17.079 17.3599 17 17.5506 17 17.7495V25.2495C17 25.4485 17.079 25.6392 17.2197 25.7799C17.3603 25.9205 17.5511 25.9995 17.75 25.9995ZM22.25 25.9995C22.4489 25.9995 22.6397 25.9205 22.7803 25.7799C22.921 25.6392 23 25.4485 23 25.2495V17.7495C23 17.5506 22.921 17.3599 22.7803 17.2192C22.6397 17.0786 22.4489 16.9995 22.25 16.9995C22.0511 16.9995 21.8603 17.0786 21.7197 17.2192C21.579 17.3599 21.5 17.5506 21.5 17.7495V25.2495C21.5 25.4485 21.579 25.6392 21.7197 25.7799C21.8603 25.9205 22.0511 25.9995 22.25 25.9995Z" fill="#BE212A"/>
</svg>
