<svg width="22" height="22" viewBox="0 0 22 22" fill="none" xmlns="http://www.w3.org/2000/svg">
<path d="M7.25 3.49955V1.24805C7.25 1.04913 7.32902 0.858369 7.46967 0.717717C7.61032 0.577065 7.80109 0.498047 8 0.498047H14C14.1989 0.498047 14.3897 0.577065 14.5303 0.717717C14.671 0.858369 14.75 1.04913 14.75 1.24805V3.49955H20.75C20.9489 3.49955 21.1397 3.57856 21.2803 3.71922C21.421 3.85987 21.5 4.05063 21.5 4.24955C21.5 4.44846 21.421 4.63922 21.2803 4.77988C21.1397 4.92053 20.9489 4.99955 20.75 4.99955H1.25C1.05109 4.99955 0.860322 4.92053 0.71967 4.77988C0.579018 4.63922 0.5 4.44846 0.5 4.24955C0.5 4.05063 0.579018 3.85987 0.71967 3.71922C0.860322 3.57856 1.05109 3.49955 1.25 3.49955H7.25ZM8.75 3.49955H13.25V1.99955H8.75V3.49955ZM3.5 21.4995C3.30109 21.4995 3.11032 21.4205 2.96967 21.2799C2.82902 21.1392 2.75 20.9485 2.75 20.7495V4.99955H19.25V20.7495C19.25 20.9485 19.171 21.1392 19.0303 21.2799C18.8897 21.4205 18.6989 21.4995 18.5 21.4995H3.5ZM8.75 16.9995C8.94891 16.9995 9.13968 16.9205 9.28033 16.7799C9.42098 16.6392 9.5 16.4485 9.5 16.2495V8.74955C9.5 8.55063 9.42098 8.35987 9.28033 8.21922C9.13968 8.07856 8.94891 7.99955 8.75 7.99955C8.55109 7.99955 8.36032 8.07856 8.21967 8.21922C8.07902 8.35987 8 8.55063 8 8.74955V16.2495C8 16.4485 8.07902 16.6392 8.21967 16.7799C8.36032 16.9205 8.55109 16.9995 8.75 16.9995ZM13.25 16.9995C13.4489 16.9995 13.6397 16.9205 13.7803 16.7799C13.921 16.6392 14 16.4485 14 16.2495V8.74955C14 8.55063 13.921 8.35987 13.7803 8.21922C13.6397 8.07856 13.4489 7.99955 13.25 7.99955C13.0511 7.99955 12.8603 8.07856 12.7197 8.21922C12.579 8.35987 12.5 8.55063 12.5 8.74955V16.2495C12.5 16.4485 12.579 16.6392 12.7197 16.7799C12.8603 16.9205 13.0511 16.9995 13.25 16.9995Z" fill="#BE212A"/>
</svg>
