<svg width="10" height="7" viewBox="0 0 10 7" fill="none" xmlns="http://www.w3.org/2000/svg">
<path d="M4.43538 5.855L0.83838 1.7435C0.41388 1.25975 0.75888 0.5 1.40313 0.5H8.59713C8.74131 0.499877 8.88248 0.541316 9.00372 0.619356C9.12495 0.697396 9.22113 0.808728 9.28072 0.94002C9.34031 1.07131 9.36079 1.217 9.33972 1.35963C9.31864 1.50227 9.2569 1.6358 9.16188 1.74425L5.56488 5.85425C5.49448 5.93481 5.40767 5.99937 5.31026 6.04361C5.21286 6.08785 5.10711 6.11074 5.00013 6.11074C4.89315 6.11074 4.78741 6.08785 4.69 6.04361C4.59259 5.99937 4.50578 5.93481 4.43538 5.85425V5.855Z" fill="#899197"/>
</svg>
