<svg width="40" height="40" viewBox="0 0 40 40" fill="none" xmlns="http://www.w3.org/2000/svg">
<rect width="40" height="40" rx="8" fill="#FFEEDD"/>
<path d="M16.707 27.7066L26 18.4136L21.586 13.9996L12.293 23.2926C12.1651 23.4207 12.0742 23.5811 12.03 23.7566L11 28.9996L16.242 27.9696C16.418 27.9256 16.579 27.8346 16.707 27.7066ZM29 15.4136C29.3749 15.0386 29.5856 14.53 29.5856 13.9996C29.5856 13.4693 29.3749 12.9607 29 12.5856L27.414 10.9996C27.0389 10.6247 26.5303 10.4141 26 10.4141C25.4697 10.4141 24.9611 10.6247 24.586 10.9996L23 12.5856L27.414 16.9996L29 15.4136Z" fill="#FFCC66"/>
</svg>
