<svg width="28" height="24" viewBox="0 0 28 24" fill="none" xmlns="http://www.w3.org/2000/svg">
<path d="M11.3337 17.3333V16H2.00033V21.3333C2.00033 22.8133 3.18699 24 4.66699 24H23.3337C24.8137 24 26.0003 22.8133 26.0003 21.3333V16H16.667V17.3333H11.3337ZM24.667 5.33333H19.3337V2.66667L16.667 0H11.3337L8.66699 2.66667V5.33333H3.33366C1.86699 5.33333 0.666992 6.53333 0.666992 8V12C0.666992 13.48 1.85366 14.6667 3.33366 14.6667H11.3337V12H16.667V14.6667H24.667C26.1337 14.6667 27.3337 13.4667 27.3337 12V8C27.3337 6.53333 26.1337 5.33333 24.667 5.33333ZM16.667 5.33333H11.3337V2.66667H16.667V5.33333Z" fill="black"/>
</svg>
