<svg width="20" height="19" viewBox="0 0 20 19" fill="none" xmlns="http://www.w3.org/2000/svg">
<path d="M19 6.25022H14.4437L15.2406 1.88147C15.2579 1.7842 15.2558 1.6845 15.2345 1.58805C15.2132 1.4916 15.1731 1.40028 15.1165 1.31932C15.0022 1.15581 14.8277 1.0444 14.6312 1.00959C14.4348 0.97478 14.2326 1.01943 14.0691 1.13371C13.9056 1.24799 13.7942 1.42254 13.7594 1.61896L12.9156 6.25022H8.44375L9.24063 1.88147C9.27543 1.68504 9.23079 1.48283 9.11651 1.31932C9.05992 1.23836 8.98794 1.16934 8.90468 1.11619C8.82142 1.06305 8.72851 1.02683 8.63125 1.00959C8.53399 0.992354 8.43429 0.994444 8.33783 1.01574C8.24138 1.03704 8.15007 1.07712 8.06911 1.13371C7.9056 1.24799 7.79418 1.42254 7.75937 1.61896L6.91562 6.25022H2.0875C1.88859 6.25022 1.69782 6.32923 1.55717 6.46989C1.41652 6.61054 1.3375 6.8013 1.3375 7.00021C1.3375 7.19913 1.41652 7.38989 1.55717 7.53054C1.69782 7.6712 1.88859 7.75021 2.0875 7.75021H6.64375L5.82812 12.2502H1C0.801088 12.2502 0.610322 12.3292 0.46967 12.4699C0.329018 12.6105 0.25 12.8013 0.25 13.0002C0.25 13.1991 0.329018 13.3899 0.46967 13.5305C0.610322 13.6712 0.801088 13.7502 1 13.7502H5.55625L4.75937 18.119C4.74184 18.2163 4.74372 18.3161 4.76489 18.4126C4.78607 18.5092 4.82612 18.6006 4.88275 18.6816C4.93938 18.7627 5.01148 18.8317 5.09488 18.8848C5.17829 18.9378 5.27136 18.9739 5.36875 18.9908H5.5C5.67653 18.9914 5.84758 18.9296 5.98305 18.8164C6.11853 18.7032 6.20973 18.5459 6.24063 18.3721L7.08438 13.7408H11.5563L10.7594 18.1096C10.7418 18.2069 10.7437 18.3067 10.7649 18.4032C10.7861 18.4998 10.8261 18.5912 10.8828 18.6722C10.9394 18.7533 11.0115 18.8223 11.0949 18.8754C11.1783 18.9284 11.2714 18.9645 11.3688 18.9815H11.5C11.6765 18.982 11.8476 18.9202 11.9831 18.807C12.1185 18.6939 12.2097 18.5365 12.2406 18.3627L13.0844 13.7315H17.9125C18.1114 13.7315 18.3022 13.6524 18.4428 13.5118C18.5835 13.3711 18.6625 13.1804 18.6625 12.9815C18.6625 12.7826 18.5835 12.5918 18.4428 12.4511C18.3022 12.3105 18.1114 12.2315 17.9125 12.2315H13.3563L14.1719 7.73147H19C19.1989 7.73147 19.3897 7.65245 19.5303 7.5118C19.671 7.37114 19.75 7.18038 19.75 6.98147C19.75 6.78255 19.671 6.59179 19.5303 6.45113C19.3897 6.31048 19.1989 6.23147 19 6.23147V6.25022ZM11.8281 12.2502H7.35625L8.17188 7.75021H12.6437L11.8281 12.2502Z" fill="#C4C4C4"/>
</svg>
