<svg width="36" height="36" viewBox="0 0 36 36" fill="none" xmlns="http://www.w3.org/2000/svg">
<path d="M18 3C26.2845 3 33 9.7155 33 18C33 26.2845 26.2845 33 18 33C15.5734 33.0032 13.1824 32.4153 11.034 31.287L4.59901 32.9625C4.384 33.0185 4.15808 33.0173 3.94365 32.9591C3.72922 32.9009 3.53372 32.7877 3.37654 32.6307C3.21935 32.4736 3.10593 32.2782 3.04751 32.0639C2.9891 31.8495 2.98772 31.6236 3.04351 31.4085L4.71751 24.975C3.58621 22.8243 2.99667 20.4301 3.00001 18C3.00001 9.7155 9.71551 3 18 3ZM18 23.25C17.6022 23.25 17.2207 23.408 16.9394 23.6893C16.658 23.9706 16.5 24.3522 16.5 24.75C16.5 25.1478 16.658 25.5294 16.9394 25.8107C17.2207 26.092 17.6022 26.25 18 26.25C18.3978 26.25 18.7794 26.092 19.0607 25.8107C19.342 25.5294 19.5 25.1478 19.5 24.75C19.5 24.3522 19.342 23.9706 19.0607 23.6893C18.7794 23.408 18.3978 23.25 18 23.25ZM18 10.125C16.906 10.125 15.8568 10.5596 15.0832 11.3332C14.3096 12.1068 13.875 13.156 13.875 14.25C13.8751 14.535 13.9834 14.8094 14.178 15.0177C14.3726 15.226 14.639 15.3526 14.9233 15.372C15.2077 15.3915 15.4889 15.3022 15.71 15.1224C15.9311 14.9425 16.0757 14.6854 16.1145 14.403L16.1355 14.058C16.1862 13.5811 16.4177 13.1417 16.7823 12.8303C17.147 12.5188 17.6172 12.3589 18.0962 12.3835C18.5751 12.4081 19.0265 12.6153 19.3573 12.9625C19.6882 13.3097 19.8735 13.7704 19.875 14.25C19.875 15.0585 19.6725 15.4575 18.9075 16.248L18.4515 16.713C17.3205 17.889 16.875 18.7335 16.875 20.25C16.875 20.5484 16.9935 20.8345 17.2045 21.0455C17.4155 21.2565 17.7016 21.375 18 21.375C18.2984 21.375 18.5845 21.2565 18.7955 21.0455C19.0065 20.8345 19.125 20.5484 19.125 20.25C19.125 19.4415 19.3275 19.0425 20.0925 18.252L20.5485 17.787C21.6795 16.611 22.125 15.7665 22.125 14.25C22.125 13.156 21.6904 12.1068 20.9168 11.3332C20.1432 10.5596 19.094 10.125 18 10.125Z" fill="#DADADA"/>
</svg>
