<svg width="24" height="20" viewBox="0 0 24 20" fill="none" xmlns="http://www.w3.org/2000/svg">
<path d="M1.5233 0.000443057C0.583141 -0.0281284 0.425426 1.33402 1.34723 1.52099L3.0456 1.89296C3.94398 6.19083 4.92327 10.4708 5.87294 14.7579C5.95098 15.1093 6.26276 15.3595 6.62293 15.3593H20.1096C21.1486 15.3746 21.1486 13.808 20.1096 13.8232H7.23916L6.89916 12.2877H20.7899C21.1499 12.2878 21.4617 12.0377 21.5399 11.6862L23.2408 4.00715C23.3469 3.52788 22.9822 3.07339 22.4913 3.07321C16.6152 3.07339 10.7395 3.07303 4.86341 3.07035L4.44591 1.08964C4.38377 0.794107 4.15395 0.562326 3.85894 0.497686L1.67503 0.0196522C1.62503 0.00822365 1.57432 0.00143776 1.52307 0.00018793L1.5233 0.000443057ZM9.81953 15.872C8.69756 15.872 7.77167 16.7981 7.77167 17.92C7.77167 19.042 8.69756 19.9681 9.81953 19.9681C10.9415 19.9681 11.8674 19.042 11.8674 17.92C11.8674 16.7981 10.9415 15.872 9.81953 15.872ZM16.9871 15.872C15.8651 15.872 14.9392 16.7981 14.9392 17.92C14.9392 19.042 15.8651 19.9681 16.9871 19.9681C18.109 19.9681 19.0349 19.042 19.0349 17.92C19.0349 16.7981 18.109 15.872 16.9871 15.872Z" fill="#C0C0C0"/>
</svg>
