<svg width="22" height="27" viewBox="0 0 22 27" fill="none" xmlns="http://www.w3.org/2000/svg">
<path d="M10.9997 0.666748C5.39967 0.666748 0.333008 4.96008 0.333008 11.6001C0.333008 15.8401 3.59967 20.8267 10.1197 26.5734C10.6263 27.0134 11.3863 27.0134 11.893 26.5734C18.3997 20.8267 21.6663 15.8401 21.6663 11.6001C21.6663 4.96008 16.5997 0.666748 10.9997 0.666748ZM10.9997 14.0001C9.53301 14.0001 8.33301 12.8001 8.33301 11.3334C8.33301 9.86675 9.53301 8.66675 10.9997 8.66675C12.4663 8.66675 13.6663 9.86675 13.6663 11.3334C13.6663 12.8001 12.4663 14.0001 10.9997 14.0001Z" fill="black"/>
</svg>
