<svg width="46" height="46" viewBox="0 0 46 46" fill="none" xmlns="http://www.w3.org/2000/svg">
<rect width="46" height="46" rx="14" fill="#E8D6FF"/>
<path d="M17.054 14.732L26.9705 18.9815L23 20.6825L13.1405 16.457C13.3625 16.2305 13.634 16.0475 13.943 15.929L17.054 14.732ZM19.061 13.961L21.386 13.067C22.4254 12.6674 23.5761 12.6674 24.6155 13.067L32.0585 15.929C32.366 16.049 32.6375 16.229 32.8595 16.457L28.8755 18.164L19.061 13.961ZM33.491 17.819L23.75 21.9935V33.1685C24.0457 33.1187 24.3356 33.0393 24.6155 32.9315L32.0585 30.068C32.4828 29.9046 32.8477 29.6165 33.105 29.2416C33.3623 28.8668 33.5001 28.4227 33.5 27.968V18.029C33.5003 17.9589 33.4968 17.8888 33.4895 17.819H33.491ZM22.25 33.1685V21.9935L12.5105 17.819C12.5037 17.8888 12.5002 17.9589 12.5 18.029V27.968C12.5001 28.4229 12.638 28.8671 12.8956 29.242C13.1532 29.6169 13.5184 29.9049 13.943 30.068L21.3845 32.9315C21.6665 33.0395 21.956 33.119 22.25 33.1685Z" fill="#703FAC"/>
</svg>
