<svg width="22" height="22" viewBox="0 0 22 22" fill="none" xmlns="http://www.w3.org/2000/svg">
<path d="M5.054 2.73227L14.9705 6.98177L11 8.68277L1.1405 4.45727C1.3625 4.23077 1.634 4.04777 1.943 3.92927L5.054 2.73227ZM7.061 1.96127L9.386 1.06727C10.4254 0.667681 11.5761 0.667681 12.6155 1.06727L20.0585 3.92927C20.366 4.04927 20.6375 4.22927 20.8595 4.45727L16.8755 6.16427L7.061 1.96127ZM21.491 5.81927L11.75 9.99377V21.1688C12.0457 21.1189 12.3356 21.0395 12.6155 20.9318L20.0585 18.0683C20.4828 17.9049 20.8477 17.6168 21.105 17.2419C21.3623 16.867 21.5001 16.423 21.5 15.9683V6.02927C21.5003 5.95913 21.4968 5.88903 21.4895 5.81927H21.491ZM10.25 21.1688V9.99377L0.5105 5.81927C0.50374 5.88907 0.500236 5.95915 0.5 6.02927V15.9683C0.50006 16.4231 0.637989 16.8673 0.895597 17.2422C1.1532 17.6171 1.51839 17.9051 1.943 18.0683L9.3845 20.9318C9.6665 21.0398 9.956 21.1193 10.25 21.1688Z" fill="#BABABA"/>
</svg>
