<svg width="46" height="46" viewBox="0 0 46 46" fill="none" xmlns="http://www.w3.org/2000/svg">
<rect width="46" height="46" rx="14" fill="#DEF0FF"/>
<g clip-path="url(#clip0_729_1958)">
<path d="M29.2999 20.1252H23.5999V22.2033C23.5999 23.6765 22.3886 24.8752 20.8999 24.8752C19.4111 24.8752 18.1999 23.6765 18.1999 22.2033V17.6908L15.7661 19.1381C15.0424 19.5648 14.5999 20.3404 14.5999 21.1717V22.9269L11.5999 24.6414C11.0261 24.9679 10.8274 25.6953 11.1611 26.2631L14.1611 31.4064C14.4911 31.9742 15.2261 32.1672 15.7999 31.8406L19.6774 29.6252H24.7999C26.1236 29.6252 27.1999 28.5601 27.1999 27.2502H27.7999C28.4636 27.2502 28.9999 26.7195 28.9999 26.0627V23.6877H29.2999C29.7986 23.6877 30.1999 23.2906 30.1999 22.797V21.0158C30.1999 20.5222 29.7986 20.1252 29.2999 20.1252ZM34.8386 18.7373L31.8386 13.5939C31.5086 13.0262 30.7736 12.8332 30.1999 13.1597L26.3224 15.3752H22.4899C22.0399 15.3752 21.6011 15.5013 21.2186 15.7351L19.9624 16.5107C19.6099 16.726 19.3999 17.1082 19.3999 17.5164V22.2033C19.3999 23.0234 20.0711 23.6877 20.8999 23.6877C21.7286 23.6877 22.3999 23.0234 22.3999 22.2033V18.9377H29.2999C30.4586 18.9377 31.3999 19.8691 31.3999 21.0158V22.0734L34.3999 20.359C34.9736 20.0287 35.1686 19.3051 34.8386 18.7373Z" fill="#4793F4"/>
</g>
<defs>
<clipPath id="clip0_729_1958">
<rect width="24" height="19" fill="white" transform="translate(11 13)"/>
</clipPath>
</defs>
</svg>
