<svg width="24" height="19" viewBox="0 0 24 19" fill="none" xmlns="http://www.w3.org/2000/svg">
<path d="M18.2999 7.12517H12.5999V9.2033C12.5999 10.6765 11.3886 11.8752 9.89988 11.8752C8.41113 11.8752 7.19988 10.6765 7.19988 9.2033V4.6908L4.76613 6.13806C4.04238 6.56482 3.59988 7.34041 3.59988 8.17166V9.92693L0.599879 11.6414C0.0261287 11.9679 -0.172621 12.6953 0.161129 13.2631L3.16113 18.4064C3.49113 18.9742 4.22613 19.1672 4.79988 18.8406L8.67738 16.6252H13.7999C15.1236 16.6252 16.1999 15.5601 16.1999 14.2502H16.7999C17.4636 14.2502 17.9999 13.7195 17.9999 13.0627V10.6877H18.2999C18.7986 10.6877 19.1999 10.2906 19.1999 9.79705V8.0158C19.1999 7.52224 18.7986 7.12517 18.2999 7.12517ZM23.8386 5.73728L20.8386 0.593924C20.5086 0.0261504 19.7736 -0.166818 19.1999 0.159744L15.3224 2.37517H11.4899C11.0399 2.37517 10.6011 2.50135 10.2186 2.73513L8.96238 3.51072C8.60988 3.72595 8.39988 4.10818 8.39988 4.51638V9.2033C8.39988 10.0234 9.07113 10.6877 9.89988 10.6877C10.7286 10.6877 11.3999 10.0234 11.3999 9.2033V5.93767H18.2999C19.4586 5.93767 20.3999 6.86912 20.3999 8.0158V9.07341L23.3999 7.35896C23.9736 7.02869 24.1686 6.30506 23.8386 5.73728Z" fill="#BABABA"/>
</svg>
