<svg width="28" height="28" viewBox="0 0 28 28" fill="none" xmlns="http://www.w3.org/2000/svg">
<path d="M2 4.66699H7.33333M26 4.66699H12.6667M2 14.0003H18M26 14.0003H23.3333M2 23.3337H4.66667M26 23.3337H10" stroke="black" stroke-width="2.66667" stroke-linecap="round"/>
<path d="M9.99967 7.33333C11.4724 7.33333 12.6663 6.13943 12.6663 4.66667C12.6663 3.19391 11.4724 2 9.99967 2C8.52692 2 7.33301 3.19391 7.33301 4.66667C7.33301 6.13943 8.52692 7.33333 9.99967 7.33333Z" stroke="black" stroke-width="2.66667" stroke-linecap="round"/>
<path d="M20.6667 16.6663C22.1394 16.6663 23.3333 15.4724 23.3333 13.9997C23.3333 12.5269 22.1394 11.333 20.6667 11.333C19.1939 11.333 18 12.5269 18 13.9997C18 15.4724 19.1939 16.6663 20.6667 16.6663Z" stroke="black" stroke-width="2.66667" stroke-linecap="round"/>
<path d="M7.33366 26.0003C8.80642 26.0003 10.0003 24.8064 10.0003 23.3337C10.0003 21.8609 8.80642 20.667 7.33366 20.667C5.8609 20.667 4.66699 21.8609 4.66699 23.3337C4.66699 24.8064 5.8609 26.0003 7.33366 26.0003Z" stroke="black" stroke-width="2.66667" stroke-linecap="round"/>
</svg>
