<svg width="22" height="22" viewBox="0 0 22 22" fill="none" xmlns="http://www.w3.org/2000/svg">
<path d="M21.3537 11.5068L16.7337 9.38018V3.28685C16.7316 3.15901 16.6928 3.03448 16.6219 2.9281C16.5509 2.82171 16.4509 2.73797 16.3337 2.68685L11.3337 0.386846C11.246 0.346232 11.1504 0.325195 11.0537 0.325195C10.957 0.325195 10.8615 0.346232 10.7737 0.386846L5.77373 2.68685C5.65801 2.7404 5.56007 2.82602 5.49154 2.93355C5.423 3.04107 5.38674 3.166 5.38706 3.29351V9.38685L0.787059 11.5068C0.671339 11.5604 0.573405 11.646 0.504871 11.7535C0.436337 11.8611 0.400077 11.986 0.400393 12.1135V18.6335C0.400077 18.761 0.436337 18.886 0.504871 18.9935C0.573405 19.101 0.671339 19.1866 0.787059 19.2402L5.78706 21.5402C5.87482 21.5808 5.97036 21.6018 6.06706 21.6018C6.16376 21.6018 6.2593 21.5808 6.34706 21.5402L11.0671 19.3668L15.7871 21.5402C15.8748 21.5808 15.9704 21.6018 16.0671 21.6018C16.1638 21.6018 16.2593 21.5808 16.3471 21.5402L21.3471 19.2402C21.4628 19.1866 21.5607 19.101 21.6292 18.9935C21.6978 18.886 21.734 18.761 21.7337 18.6335V12.1135C21.7346 11.9867 21.6994 11.8623 21.6321 11.7549C21.5648 11.6474 21.4682 11.5614 21.3537 11.5068ZM16.0737 13.6668L12.6671 12.1135L16.0737 10.5468L19.4804 12.1135L16.0737 13.6668ZM15.4071 9.37351L11.1137 11.3735V6.24685C11.1941 6.24329 11.2731 6.22522 11.3471 6.19351L15.4004 4.33351V9.38685L15.4071 9.37351ZM11.0671 1.72018L14.4737 3.28685L11.0671 4.85351L7.66706 3.28685L11.0671 1.72018ZM6.06706 10.5402L9.47373 12.1068L6.06706 13.6668L2.66039 12.1135L6.06706 10.5402ZM10.4004 18.2002L6.06706 20.2002V15.0735C6.1601 15.068 6.25094 15.043 6.33373 15.0002L10.3871 13.1335L10.4004 18.2002ZM20.4004 18.2002L16.0937 20.2002V15.0735C16.1776 15.0645 16.2591 15.0396 16.3337 15.0002L20.3871 13.1335L20.4004 18.2002Z" fill="#BABABA"/>
</svg>
