<svg width="40" height="40" viewBox="0 0 40 40" fill="none" xmlns="http://www.w3.org/2000/svg">
<rect width="40" height="40" rx="8" fill="#F7F7F7"/>
<path d="M19.9066 22.6251C20.6028 22.6251 21.2705 22.3485 21.7628 21.8562C22.2551 21.3639 22.5316 20.6963 22.5316 20.0001C22.5316 19.9232 22.5281 19.847 22.5216 19.7718L19.6783 22.615C19.7536 22.6216 19.8295 22.6251 19.9066 22.6251ZM28.5954 11.8804L27.5941 10.8801C27.559 10.8449 27.5113 10.8252 27.4616 10.8252C27.4119 10.8252 27.3642 10.8449 27.3291 10.8801L24.7669 13.443C23.3534 12.7206 21.7646 12.3594 20.0004 12.3594C15.4957 12.3594 12.1348 14.7055 9.91757 19.3977C9.82845 19.5864 9.78223 19.7925 9.78223 20.0012C9.78223 20.2099 9.82845 20.416 9.91757 20.6048C10.8035 22.4708 11.8703 23.9666 13.118 25.0919L10.6385 27.5704C10.6034 27.6055 10.5836 27.6532 10.5836 27.7029C10.5836 27.7526 10.6034 27.8003 10.6385 27.8355L11.6391 28.836C11.6742 28.8711 11.7219 28.8909 11.7716 28.8909C11.8213 28.8909 11.869 28.8711 11.9041 28.836L28.5954 12.1457C28.6128 12.1283 28.6266 12.1076 28.6361 12.0848C28.6455 12.0621 28.6504 12.0377 28.6504 12.013C28.6504 11.9884 28.6455 11.964 28.6361 11.9412C28.6266 11.9185 28.6128 11.8978 28.5954 11.8804ZM15.7816 20.0001C15.7816 19.2876 15.966 18.5872 16.3171 17.9672C16.6682 17.3472 17.1738 16.8287 17.7848 16.4622C18.3958 16.0958 19.0913 15.8938 19.8036 15.876C20.5159 15.8582 21.2206 16.0252 21.8491 16.3607L20.7096 17.5002C20.25 17.3531 19.7588 17.3354 19.2898 17.449C18.8209 17.5627 18.3923 17.8033 18.0511 18.1445C17.7098 18.4857 17.4692 18.9143 17.3556 19.3833C17.2419 19.8523 17.2596 20.3435 17.4068 20.803L16.2673 21.9426C15.9475 21.3451 15.7806 20.6777 15.7816 20.0001Z" fill="#899197"/>
<path d="M30.083 19.3949C29.258 17.6574 28.2761 16.2406 27.1372 15.1445L23.7589 18.523C24.0437 19.2675 24.1068 20.0784 23.9406 20.8579C23.7745 21.6374 23.3862 22.3521 22.8226 22.9157C22.259 23.4793 21.5443 23.8676 20.7648 24.0338C19.9853 24.1999 19.1743 24.1368 18.4299 23.852L15.5645 26.7175C16.8938 27.3327 18.3724 27.6402 20.0002 27.6402C24.5049 27.6402 27.8659 25.2941 30.083 20.602C30.1722 20.4132 30.2184 20.2071 30.2184 19.9984C30.2184 19.7897 30.1722 19.5836 30.083 19.3949Z" fill="#899197"/>
</svg>
