<svg width="40" height="40" viewBox="0 0 40 40" fill="none" xmlns="http://www.w3.org/2000/svg">
<rect width="40" height="40" rx="8" fill="#DEF0FF"/>
<path d="M17.2816 20C17.2816 20.6962 17.5582 21.3639 18.0505 21.8562C18.5428 22.3484 19.2104 22.625 19.9066 22.625C20.6028 22.625 21.2705 22.3484 21.7628 21.8562C22.2551 21.3639 22.5316 20.6962 22.5316 20C22.5316 19.3038 22.2551 18.6361 21.7628 18.1438C21.2705 17.6516 20.6028 17.375 19.9066 17.375C19.2104 17.375 18.5428 17.6516 18.0505 18.1438C17.5582 18.6361 17.2816 19.3038 17.2816 20ZM30.0832 19.3953C27.8613 14.7148 24.5027 12.3594 20.0004 12.3594C15.4957 12.3594 12.1394 14.7148 9.91757 19.3977C9.82845 19.5864 9.78223 19.7925 9.78223 20.0012C9.78223 20.2099 9.82845 20.416 9.91757 20.6047C12.1394 25.2852 15.498 27.6406 20.0004 27.6406C24.5051 27.6406 27.8613 25.2852 30.0832 20.6023C30.2637 20.2227 30.2637 19.782 30.0832 19.3953ZM19.9066 24.125C17.6285 24.125 15.7816 22.2781 15.7816 20C15.7816 17.7219 17.6285 15.875 19.9066 15.875C22.1848 15.875 24.0316 17.7219 24.0316 20C24.0316 22.2781 22.1848 24.125 19.9066 24.125Z" fill="#4793F4"/>
</svg>
