<svg width="40" height="40" viewBox="0 0 40 40" fill="none" xmlns="http://www.w3.org/2000/svg">
<rect width="40" height="40" rx="8" fill="#DEF4F6"/>
<path d="M22 20C22 18.9 21.1 18 20 18C18.9 18 18 18.9 18 20C18 21.1 18.9 22 20 22C21.1 22 22 21.1 22 20ZM20 11C17.6131 11 15.3239 11.9482 13.636 13.636C11.9482 15.3239 11 17.6131 11 20H8L12 24L16 20H13C13 16.13 16.13 13 20 13C23.87 13 27 16.13 27 20C27.0014 21.2858 26.6483 22.5471 25.9796 23.6453C25.3109 24.7435 24.3524 25.6362 23.2095 26.2252C22.0666 26.8142 20.7834 27.0769 19.5009 26.9842C18.2185 26.8916 16.9864 26.4472 15.94 25.7L14.52 27.14C15.6546 28.0107 16.9805 28.5985 18.3876 28.8545C19.7947 29.1106 21.2426 29.0277 22.6112 28.6126C23.9799 28.1975 25.2299 27.4622 26.2577 26.4676C27.2855 25.473 28.0614 24.2478 28.5213 22.8935C28.9811 21.5392 29.1115 20.0949 28.9018 18.6801C28.692 17.2653 28.1481 15.9209 27.3151 14.7583C26.4822 13.5957 25.3841 12.6483 24.112 11.9947C22.8398 11.3411 21.4302 11.0001 20 11Z" fill="#238B95"/>
</svg>
