<svg width="32" height="32" viewBox="0 0 32 32" fill="none" xmlns="http://www.w3.org/2000/svg">
<path d="M7.09109 20.0093H4.3518C4.07019 20.0093 3.83984 20.2396 3.83984 20.5212V24.438C3.83984 24.7196 4.0702 24.95 4.3518 24.95H7.09109C7.3727 24.95 7.60304 24.7196 7.60304 24.438V20.4955C7.57751 20.2139 7.37268 20.0093 7.09109 20.0093Z" fill="#C0C0C0"/>
<path d="M12.851 17.5005H10.0862C9.80456 17.5005 9.57422 17.7308 9.57422 18.0124V24.438C9.57422 24.7197 9.80458 24.95 10.0862 24.95H12.8255C13.1071 24.95 13.3374 24.7196 13.3374 24.438V18.0124C13.3374 17.7308 13.1326 17.5005 12.851 17.5005Z" fill="#C0C0C0"/>
<path d="M18.6112 14.9917H15.8464C15.5648 14.9917 15.3345 15.2221 15.3345 15.5037V24.4381C15.3345 24.7197 15.5648 24.95 15.8464 24.95H18.5857C18.8673 24.95 19.0977 24.7197 19.0977 24.4381V15.5037C19.0977 15.222 18.8671 14.9917 18.6112 14.9917Z" fill="#C0C0C0"/>
<path d="M23.3726 8.0284C23.5774 7.67001 23.3214 7.23485 22.9374 7.20911L18.9694 7.02983C18.5342 7.00429 18.2781 7.465 18.4574 7.82338L18.9951 8.82178L5.63192 16.195C5.17121 16.4511 5.01748 17.0143 5.24799 17.475C5.47835 17.9357 6.06729 18.0895 6.52799 17.859L19.8912 10.4862L20.4289 11.4846C20.6337 11.843 21.1712 11.8685 21.376 11.4846L23.3726 8.0284Z" fill="#C0C0C0"/>
<path d="M27.3665 18.2941C26.7778 17.6541 25.9329 17.2702 25.0626 17.2702H24.141C23.8338 17.2702 23.5522 17.1421 23.3474 16.9118C23.1426 16.6814 23.0403 16.3998 23.0914 16.0925C23.1426 15.5548 23.6291 15.1453 24.2178 15.1453H25.293C25.6259 15.1453 25.8818 15.3757 25.9586 15.683C26.0098 15.8623 26.1634 15.9902 26.3425 15.9902H27.5712C27.6993 15.9902 27.8016 15.9389 27.8784 15.8621C27.9552 15.7853 27.9807 15.6573 27.9807 15.555C27.8527 14.275 26.8543 13.2766 25.6 13.123V12.0478C25.6 11.8175 25.4207 11.6382 25.1904 11.6382H23.9616C23.7313 11.6382 23.552 11.8175 23.552 12.0478L23.5521 13.1741C21.965 13.4557 20.8641 14.9148 21.0177 16.5276C21.197 18.0894 22.605 19.3182 24.2689 19.3182H25.0625C25.3696 19.3182 25.6513 19.4462 25.8561 19.6766C26.0609 19.9069 26.1632 20.1885 26.1121 20.4959C26.0609 21.0336 25.5744 21.443 24.9857 21.443H23.9105C23.5776 21.443 23.296 21.2127 23.2449 20.9053C23.2194 20.726 23.0401 20.5982 22.861 20.5982H21.6323C21.5042 20.5982 21.4019 20.6494 21.3251 20.7262C21.2483 20.803 21.2228 20.931 21.2228 21.0334C21.3508 22.3134 22.3492 23.3118 23.6035 23.4653V24.5405C23.6035 24.7709 23.7828 24.9502 24.0131 24.9502H25.2162C25.4465 24.9502 25.6258 24.7709 25.6258 24.5405L25.6256 23.4141C26.9824 23.1325 28.0321 22.0318 28.1601 20.7005C28.2368 19.8046 27.9552 18.9598 27.3665 18.2941Z" fill="#C0C0C0"/>
</svg>
