<svg width="36" height="36" viewBox="0 0 36 36" fill="none" xmlns="http://www.w3.org/2000/svg">
<rect width="36" height="36" rx="12" fill="#EFF1F8"/>
<path d="M24.6989 21.3885C26.0994 19.4771 26.7267 17.1073 26.4552 14.7532C26.1837 12.3991 25.0336 10.2344 23.2348 8.69203C21.436 7.14968 19.1213 6.34347 16.7537 6.43471C14.3861 6.52595 12.1403 7.50791 10.4655 9.18412C8.7907 10.8603 7.81049 13.1072 7.72095 15.4752C7.63142 17.8432 8.43917 20.1576 9.98259 21.9556C11.526 23.7535 13.6913 24.9023 16.0452 25.1721C18.3992 25.4419 20.7682 24.8129 22.6783 23.4108H22.6768C22.7202 23.4686 22.7665 23.5236 22.8186 23.5771L28.3871 29.1465C28.6583 29.4179 29.0262 29.5705 29.4099 29.5706C29.7936 29.5707 30.1616 29.4184 30.433 29.1472C30.7044 28.8759 30.857 28.508 30.8571 28.1242C30.8572 27.7405 30.7049 27.3724 30.4337 27.101L24.8652 21.5317C24.8135 21.4793 24.7579 21.431 24.6989 21.387V21.3885ZM25.072 15.8278C25.072 16.8726 24.8663 17.9072 24.4665 18.8725C24.0667 19.8378 23.4807 20.7149 22.742 21.4537C22.0033 22.1925 21.1264 22.7785 20.1612 23.1784C19.1961 23.5782 18.1616 23.784 17.117 23.784C16.0723 23.784 15.0378 23.5782 14.0727 23.1784C13.1075 22.7785 12.2306 22.1925 11.4919 21.4537C10.7532 20.7149 10.1672 19.8378 9.76745 18.8725C9.36767 17.9072 9.16191 16.8726 9.16191 15.8278C9.16191 13.7177 10 11.694 11.4919 10.2019C12.9838 8.70987 15.0072 7.87163 17.117 7.87163C19.2268 7.87163 21.2502 8.70987 22.742 10.2019C24.2339 11.694 25.072 13.7177 25.072 15.8278Z" fill="black"/>
</svg>
