<svg width="27" height="27" viewBox="0 0 27 27" fill="none" xmlns="http://www.w3.org/2000/svg">
<path fill-rule="evenodd" clip-rule="evenodd" d="M10.1373 3.66981L5.87584 5.60918C5.25834 4.92865 4.36616 4.5 3.375 4.5C1.512 4.5 0 6.012 0 7.875C0 9.34656 0.942685 10.5986 2.25778 11.0599V15.9401C0.942685 16.4014 0 17.6534 0 19.125C0 20.988 1.512 22.5 3.375 22.5C4.36718 22.5 5.26037 22.0713 5.87815 21.3886L10.1386 23.3247C10.1295 23.4236 10.125 23.5238 10.125 23.625C10.125 25.488 11.637 27 13.5 27C15.363 27 16.875 25.488 16.875 23.625C16.875 23.5238 16.8705 23.4236 16.8614 23.3247L21.1218 21.3886C21.7396 22.0713 22.6328 22.5 23.625 22.5C25.488 22.5 27 20.988 27 19.125C27 17.6534 26.0573 16.4014 24.7422 15.9401V11.0599C26.0573 10.5986 27 9.34656 27 7.875C27 6.012 25.488 4.5 23.625 4.5C22.6338 4.5 21.7416 4.92865 21.1242 5.60918L16.8627 3.66981C16.8705 3.57288 16.875 3.47394 16.875 3.375C16.875 1.512 15.363 0 13.5 0C11.637 0 10.125 1.512 10.125 3.375C10.125 3.47394 10.1295 3.57288 10.1373 3.66981ZM13.5 22.4997C14.121 22.4997 14.625 23.0037 14.625 23.6247C14.625 24.2458 14.121 24.7497 13.5 24.7497C12.879 24.7497 12.375 24.2458 12.375 23.6247C12.375 23.0037 12.879 22.4997 13.5 22.4997ZM11.0712 5.71667L6.74447 7.68542C6.74773 7.74845 6.74999 7.81148 6.74999 7.87451C6.74999 9.34029 5.81406 10.5891 4.50777 11.0549V15.9442C5.81406 16.41 6.74999 17.6588 6.74999 19.1246C6.74999 19.1864 6.74899 19.2484 6.74547 19.3102L11.0745 21.2779C11.6887 20.6443 12.5483 20.2496 13.5 20.2496C14.4517 20.2496 15.3113 20.6443 15.9255 21.2779L20.2545 19.3102C20.251 19.2484 20.2499 19.1863 20.2499 19.1246C20.2499 17.6588 21.1859 16.41 22.4922 15.9442V11.0549C21.1859 10.5891 20.2499 9.34029 20.2499 7.87451C20.2499 7.81148 20.2522 7.74845 20.2555 7.68542L15.9287 5.71667C15.3157 6.35349 14.4539 6.74948 13.4999 6.74948C12.5459 6.74948 11.6842 6.35347 11.0712 5.71667ZM4.49993 19.1247C4.49993 19.7458 3.99595 20.2497 3.37493 20.2497C2.75392 20.2497 2.24994 19.7458 2.24994 19.1247C2.24994 18.5037 2.75392 17.9997 3.37493 17.9997C3.99595 17.9997 4.49993 18.5037 4.49993 19.1247ZM24.7499 19.1247C24.7499 19.7458 24.2459 20.2497 23.6249 20.2497C23.0039 20.2497 22.4999 19.7458 22.4999 19.1247C22.4999 18.5037 23.0039 17.9997 23.6249 17.9997C24.2459 17.9997 24.7499 18.5037 24.7499 19.1247ZM13.966 9.10067C13.6699 8.96582 13.3304 8.96582 13.0344 9.10067L9.66387 10.634C9.26334 10.8176 9.00572 11.2181 9.00572 11.659V15.3344C9.00572 15.7754 9.26336 16.1759 9.66516 16.3592L13.0344 17.8902C13.3304 18.0253 13.6699 18.0253 13.966 17.8902L17.3352 16.3592C17.737 16.1759 17.9947 15.7753 17.9947 15.3344V11.659C17.9947 11.2181 17.737 10.8175 17.3365 10.634L13.966 9.10067ZM13.5002 11.361L15.7447 12.3823V14.6099L13.5002 15.6302L11.2557 14.6099V12.3823L13.5002 11.361ZM24.7502 7.87448C24.7502 8.4955 24.2462 8.99948 23.6252 8.99948C23.0042 8.99948 22.5002 8.4955 22.5002 7.87448C22.5002 7.25347 23.0042 6.74948 23.6252 6.74948C24.2462 6.74948 24.7502 7.25347 24.7502 7.87448ZM4.50019 7.87448C4.50019 8.4955 3.9962 8.99948 3.37519 8.99948C2.75417 8.99948 2.25019 8.4955 2.25019 7.87448C2.25019 7.25347 2.75417 6.74948 3.37519 6.74948C3.9962 6.74948 4.50019 7.25347 4.50019 7.87448ZM13.5002 2.24948C14.1212 2.24948 14.6252 2.75347 14.6252 3.37448C14.6252 3.99549 14.1212 4.49948 13.5002 4.49948C12.8792 4.49948 12.3752 3.99549 12.3752 3.37448C12.3752 2.75347 12.8792 2.24948 13.5002 2.24948Z" fill="black"/>
</svg>
