<svg width="24" height="19" viewBox="0 0 24 19" fill="none" xmlns="http://www.w3.org/2000/svg">
<path d="M8.4 9.5C11.0513 9.5 13.2 7.37326 13.2 4.75C13.2 2.12674 11.0513 0 8.4 0C5.74875 0 3.6 2.12674 3.6 4.75C3.6 7.37326 5.74875 9.5 8.4 9.5ZM10.3013 11.2812H6.49875C2.90887 11.2812 0 14.1609 0 17.7123C0 18.4248 0.582 19 1.29975 19H15.4987C16.2188 19 16.8 18.4248 16.8 17.7123C16.8 14.1609 13.89 11.2812 10.3013 11.2812ZM17.9663 11.875H15.1969C16.92 13.274 18 15.367 18 17.7123C18 18.1873 17.8575 18.6252 17.625 19H22.8C23.4638 19 24 18.4656 24 17.7791C24 14.532 21.315 11.875 17.9663 11.875ZM16.2 9.5C18.5213 9.5 20.4 7.64082 20.4 5.34375C20.4 3.04668 18.5213 1.1875 16.2 1.1875C15.2584 1.1875 14.3985 1.50497 13.698 2.02283C14.13 2.84369 14.4 3.76289 14.4 4.75C14.4 6.06813 13.9526 7.27863 13.2154 8.26463C13.9763 9.025 15.03 9.5 16.2 9.5Z" fill="#BABABA"/>
</svg>
