<svg width="25" height="24" viewBox="0 0 25 24" fill="none" xmlns="http://www.w3.org/2000/svg">
<path d="M19.7672 8C19.5927 7.69772 19.3421 7.44638 19.0404 7.27095C18.7386 7.09552 18.3962 7.00211 18.0472 7H15.6172V5C15.6172 4.73478 15.5118 4.48043 15.3243 4.29289C15.1368 4.10536 14.8824 4 14.6172 4H4.61719C4.08675 4 3.57805 4.21071 3.20297 4.58579C2.8279 4.96086 2.61719 5.46957 2.61719 6V16C2.61755 16.3507 2.71013 16.6952 2.88565 16.9988C3.06117 17.3025 3.31345 17.5546 3.61719 17.73C3.58138 18.6583 3.91579 19.5627 4.54685 20.2444C5.17791 20.9261 6.05393 21.3292 6.98219 21.365C7.91045 21.4008 8.81491 21.0664 9.4966 20.4353C10.1783 19.8043 10.5814 18.9283 10.6172 18H13.7172C13.8278 18.8367 14.2386 19.6047 14.8733 20.161C15.508 20.7173 16.3232 21.024 17.1672 21.024C18.0112 21.024 18.8264 20.7173 19.4611 20.161C20.0957 19.6047 20.5066 18.8367 20.6172 18C21.1476 18 21.6563 17.7893 22.0314 17.4142C22.4065 17.0391 22.6172 16.5304 22.6172 16V13C22.6156 12.8176 22.5674 12.6386 22.4772 12.48L19.7672 8ZM15.6172 9H18.0472L19.8472 12H15.6172V9ZM7.11719 19C6.82052 19 6.53051 18.912 6.28383 18.7472C6.03716 18.5824 5.8449 18.3481 5.73137 18.074C5.61784 17.7999 5.58813 17.4983 5.64601 17.2074C5.70389 16.9164 5.84675 16.6491 6.05653 16.4393C6.26631 16.2296 6.53358 16.0867 6.82455 16.0288C7.11552 15.9709 7.41712 16.0007 7.69121 16.1142C7.9653 16.2277 8.19957 16.42 8.36439 16.6666C8.52921 16.9133 8.61719 17.2033 8.61719 17.5C8.61719 17.8978 8.45915 18.2794 8.17785 18.5607C7.89654 18.842 7.51501 19 7.11719 19ZM17.1172 19C16.8205 19 16.5305 18.912 16.2838 18.7472C16.0372 18.5824 15.8449 18.3481 15.7314 18.074C15.6178 17.7999 15.5881 17.4983 15.646 17.2074C15.7039 16.9164 15.8467 16.6491 16.0565 16.4393C16.2663 16.2296 16.5336 16.0867 16.8246 16.0288C17.1155 15.9709 17.4171 16.0007 17.6912 16.1142C17.9653 16.2277 18.1996 16.42 18.3644 16.6666C18.5292 16.9133 18.6172 17.2033 18.6172 17.5C18.6172 17.8978 18.4592 18.2794 18.1778 18.5607C17.8965 18.842 17.515 19 17.1172 19Z" fill="black"/>
</svg>
