<svg width="17" height="18" viewBox="0 0 17 18" fill="none" xmlns="http://www.w3.org/2000/svg">
<path d="M8.60454 8.12029C8.59212 8.10442 8.57625 8.09158 8.55812 8.08275C8.54 8.07392 8.52011 8.06934 8.49995 8.06934C8.4798 8.06934 8.4599 8.07392 8.44178 8.08275C8.42366 8.09158 8.40779 8.10442 8.39536 8.12029L6.53599 10.4727C6.52066 10.4923 6.51115 10.5158 6.50854 10.5405C6.50594 10.5653 6.51034 10.5902 6.52125 10.6126C6.53216 10.6349 6.54914 10.6537 6.57024 10.6669C6.59134 10.68 6.61572 10.6869 6.64058 10.6869H7.86743V14.7111C7.86743 14.7842 7.9272 14.8439 8.00025 14.8439H8.99634C9.06939 14.8439 9.12915 14.7842 9.12915 14.7111V10.6886H10.3593C10.4706 10.6886 10.532 10.5607 10.4639 10.4744L8.60454 8.12029Z" fill="#BE212A"/>
<path d="M13.4705 6.58779C12.7102 4.58232 10.7728 3.15625 8.50332 3.15625C6.23389 3.15625 4.29648 4.58066 3.53613 6.58613C2.11338 6.95967 1.0625 8.25625 1.0625 9.79688C1.0625 11.6313 2.54834 13.1172 4.38115 13.1172H5.04688C5.11992 13.1172 5.17969 13.0574 5.17969 12.9844V11.9883C5.17969 11.9152 5.11992 11.8555 5.04688 11.8555H4.38115C3.82168 11.8555 3.29541 11.633 2.90361 11.2296C2.51348 10.8278 2.30596 10.2866 2.32422 9.72549C2.33916 9.28721 2.48857 8.87549 2.75918 8.52852C3.03643 8.1749 3.4249 7.91758 3.85654 7.80303L4.48574 7.63867L4.7165 7.03105C4.85928 6.65254 5.0585 6.29893 5.30918 5.97852C5.55666 5.66094 5.84982 5.38177 6.1791 5.1501C6.86143 4.67031 7.66494 4.41631 8.50332 4.41631C9.3417 4.41631 10.1452 4.67031 10.8275 5.1501C11.1579 5.38252 11.4501 5.66143 11.6975 5.97852C11.9481 6.29893 12.1474 6.6542 12.2901 7.03105L12.5192 7.63701L13.1468 7.80303C14.0466 8.04541 14.6758 8.86387 14.6758 9.79688C14.6758 10.3464 14.4616 10.8644 14.0731 11.2528C13.8826 11.4445 13.656 11.5964 13.4064 11.6998C13.1567 11.8033 12.8891 11.8562 12.6188 11.8555H11.9531C11.8801 11.8555 11.8203 11.9152 11.8203 11.9883V12.9844C11.8203 13.0574 11.8801 13.1172 11.9531 13.1172H12.6188C14.4517 13.1172 15.9375 11.6313 15.9375 9.79688C15.9375 8.25791 14.8899 6.96299 13.4705 6.58779Z" fill="#BE212A"/>
</svg>
