<svg width="29" height="15" viewBox="0 0 29 15" fill="none" xmlns="http://www.w3.org/2000/svg">
<path d="M14.6169 8.50352C16.5435 8.50352 18.2455 8.96447 19.6284 9.56727C20.9049 10.1346 21.7086 11.4111 21.7086 12.794V14.7087H7.52526V12.8058C7.52526 11.4111 8.32898 10.1346 9.60548 9.57909C10.9884 8.96447 12.6904 8.50352 14.6169 8.50352ZM5.16137 8.799C6.46151 8.799 7.52526 7.73525 7.52526 6.43511C7.52526 5.13497 6.46151 4.07122 5.16137 4.07122C3.86123 4.07122 2.79748 5.13497 2.79748 6.43511C2.79748 7.73525 3.86123 8.799 5.16137 8.799ZM6.49697 10.0991C6.05965 10.0282 5.62233 9.98095 5.16137 9.98095C3.99125 9.98095 2.88022 10.2292 1.87557 10.6665C1.44736 10.8495 1.08239 11.1543 0.826021 11.5431C0.569651 11.9319 0.433188 12.3874 0.433595 12.8531V14.7087H5.75235V12.8058C5.75235 11.8248 6.02419 10.9029 6.49697 10.0991ZM24.0725 8.799C25.3726 8.799 26.4364 7.73525 26.4364 6.43511C26.4364 5.13497 25.3726 4.07122 24.0725 4.07122C22.7723 4.07122 21.7086 5.13497 21.7086 6.43511C21.7086 7.73525 22.7723 8.799 24.0725 8.799ZM28.8003 12.8531C28.8003 11.8957 28.2329 11.0447 27.3583 10.6665C26.3219 10.2142 25.2033 9.98086 24.0725 9.98095C23.6115 9.98095 23.1742 10.0282 22.7369 10.0991C23.2097 10.9029 23.4815 11.8248 23.4815 12.8058V14.7087H28.8003V12.8531ZM14.6169 0.525391C16.579 0.525391 18.1628 2.1092 18.1628 4.07122C18.1628 6.03325 16.579 7.61706 14.6169 7.61706C12.6549 7.61706 11.0711 6.03325 11.0711 4.07122C11.0711 2.1092 12.6549 0.525391 14.6169 0.525391Z" fill="#238B95"/>
</svg>
