<svg width="26" height="26" viewBox="0 0 26 26" fill="none" xmlns="http://www.w3.org/2000/svg">
<path d="M16.8811 16.4333C16.7063 16.4903 16.5586 16.6095 16.4657 16.7682L15.3847 18.6226V18.6229C15.2923 18.7816 15.2612 18.9686 15.2976 19.1487C15.3943 19.667 15.6204 20.1523 15.9552 20.5597V20.8016C15.6492 21.1565 15.4334 21.58 15.3262 22.0362H1.17192C1.02638 22.0364 0.88799 21.973 0.792904 21.863C0.697813 21.7527 0.655407 21.6067 0.676836 21.4628C0.938887 19.3916 1.84895 17.4561 3.27684 15.9333C4.96724 14.2522 7.38175 13.4333 10.4597 13.4873C13.7213 13.4324 16.218 14.3598 17.9191 16.2574V16.2572C17.5664 16.2659 17.2169 16.325 16.881 16.4333L16.8811 16.4333ZM25.1554 21.9177C25.2239 22.0387 25.2808 22.166 25.3255 22.2979L24.5605 23.6079L24.5603 23.6077C24.4257 23.6354 24.2884 23.6488 24.1509 23.6479C23.9116 23.4693 23.5895 23.4497 23.3304 23.5979L22.4405 24.1079V24.1077C22.1815 24.255 22.0344 24.5416 22.0655 24.8378C21.9972 24.9586 21.915 25.0711 21.8204 25.1729L20.3059 25.168V25.1677C20.215 25.0624 20.1344 24.9485 20.0655 24.8278C20.1005 24.532 19.9572 24.2436 19.7005 24.0928L18.8106 23.5778H18.8103C18.5536 23.4274 18.232 23.443 17.9909 23.6178C17.853 23.6189 17.7155 23.6055 17.5804 23.5778L16.8255 22.2628C16.8713 22.1307 16.9297 22.0035 17.0005 21.8827C17.2746 21.7657 17.4521 21.4959 17.4505 21.1979L17.4554 20.1729C17.4601 19.874 17.2844 19.6017 17.0103 19.4827C16.9418 19.3635 16.8849 19.2378 16.8405 19.1077L17.6054 17.7976V17.7979C17.74 17.7677 17.8777 17.7543 18.0155 17.7577C18.2545 17.9363 18.5769 17.9559 18.836 17.8077L19.7304 17.2976V17.2979C19.9866 17.1485 20.1315 16.8628 20.1005 16.5678C20.1697 16.4461 20.2518 16.332 20.3453 16.2278L21.8603 16.2378C21.9523 16.3403 22.0329 16.4528 22.1005 16.5729C22.0655 16.8684 22.2085 17.1571 22.4655 17.3077L23.3554 17.8278C23.6134 17.9771 23.9353 17.9595 24.1755 17.7827C24.3135 17.7816 24.4514 17.7965 24.586 17.8278L25.3405 19.1427C25.2958 19.2738 25.2371 19.3994 25.1655 19.5177C24.892 19.6358 24.7152 19.905 24.7155 20.2028L24.711 21.2327C24.7061 21.5302 24.8817 21.801 25.1554 21.9177ZM21.7603 19.5379C21.4521 19.3582 21.0851 19.3084 20.74 19.3995C20.3949 19.4905 20.1003 19.7151 19.9206 20.0234C19.7411 20.3316 19.6914 20.6988 19.7824 21.0439C19.8733 21.3887 20.0978 21.6836 20.4061 21.8631C20.7143 22.0428 21.0815 22.0925 21.4266 22.0015C21.7715 21.9104 22.0663 21.6861 22.2458 21.3778C22.4255 21.0691 22.475 20.7017 22.3838 20.3564C22.2925 20.0111 22.0679 19.7162 21.7594 19.5363L21.7603 19.5379ZM10.4477 11.463C11.8618 11.4628 13.2179 10.901 14.2176 9.90118C15.2174 8.90118 15.779 7.54518 15.7788 6.13106C15.7788 4.71723 15.2169 3.36118 14.2172 2.36118C13.2172 1.3614 11.8612 0.799805 10.4471 0.799805C9.03323 0.800028 7.67717 1.36163 6.6774 2.36163C5.6774 3.3614 5.1158 4.71746 5.1158 6.13152C5.11736 7.54512 5.67964 8.90026 6.67917 9.89981C7.67895 10.8993 9.03409 11.4614 10.4477 11.4629L10.4477 11.463Z" fill="#C0C0C0"/>
</svg>
