<svg width="46" height="46" viewBox="0 0 46 46" fill="none" xmlns="http://www.w3.org/2000/svg">
<rect width="46" height="46" rx="6" fill="#DEF4F6"/>
<g clip-path="url(#clip0_729_592)">
<path d="M22.6169 23.5035C24.5435 23.5035 26.2455 23.9645 27.6284 24.5673C28.9049 25.1346 29.7086 26.4111 29.7086 27.794V29.7087H15.5253V27.8058C15.5253 26.4111 16.329 25.1346 17.6055 24.5791C18.9884 23.9645 20.6904 23.5035 22.6169 23.5035ZM13.1614 23.799C14.4615 23.799 15.5253 22.7353 15.5253 21.4351C15.5253 20.135 14.4615 19.0712 13.1614 19.0712C11.8612 19.0712 10.7975 20.135 10.7975 21.4351C10.7975 22.7353 11.8612 23.799 13.1614 23.799ZM14.497 25.0991C14.0597 25.0282 13.6223 24.9809 13.1614 24.9809C11.9912 24.9809 10.8802 25.2292 9.87557 25.6665C9.44736 25.8495 9.08239 26.1543 8.82602 26.5431C8.56965 26.9319 8.43319 27.3874 8.43359 27.8531V29.7087H13.7523V27.8058C13.7523 26.8248 14.0242 25.9029 14.497 25.0991V25.0991ZM32.0725 23.799C33.3726 23.799 34.4364 22.7353 34.4364 21.4351C34.4364 20.135 33.3726 19.0712 32.0725 19.0712C30.7723 19.0712 29.7086 20.135 29.7086 21.4351C29.7086 22.7353 30.7723 23.799 32.0725 23.799ZM36.8003 27.8531C36.8003 26.8957 36.2329 26.0447 35.3583 25.6665C34.3219 25.2142 33.2033 24.9809 32.0725 24.9809C31.6115 24.9809 31.1742 25.0282 30.7369 25.0991C31.2097 25.9029 31.4815 26.8248 31.4815 27.8058V29.7087H36.8003V27.8531ZM22.6169 15.5254C24.579 15.5254 26.1628 17.1092 26.1628 19.0712C26.1628 21.0333 24.579 22.6171 22.6169 22.6171C20.6549 22.6171 19.0711 21.0333 19.0711 19.0712C19.0711 17.1092 20.6549 15.5254 22.6169 15.5254Z" fill="#238B95"/>
</g>
<defs>
<clipPath id="clip0_729_592">
<rect width="28.3667" height="28.3667" fill="white" transform="translate(8.43359 8.43359)"/>
</clipPath>
</defs>
</svg>
